<mxfile host="Electron" agent="Mozilla/5.0 (Macintosh; Intel Mac OS X 10_15_7) AppleWebKit/537.36 (KHTML, like Gecko) draw.io/27.0.9 Chrome/134.0.6998.205 Electron/35.4.0 Safari/537.36" version="27.0.9">
  <diagram name="Page-1" id="06UfMXNwOf_tcBJyqqnp">
    <mxGraphModel dx="1020" dy="1990" grid="1" gridSize="10" guides="1" tooltips="1" connect="1" arrows="1" fold="1" page="1" pageScale="1" pageWidth="827" pageHeight="1169" math="0" shadow="0">
      <root>
        <mxCell id="0" />
        <mxCell id="1" parent="0" />
        <mxCell id="ucuFcOUFUWE4z8_Ut5mJ-1" value="&lt;p style=&quot;margin:0px;margin-top:4px;text-align:center;&quot;&gt;&lt;i&gt;&amp;lt;&amp;lt;Interface&amp;gt;&amp;gt;&lt;/i&gt;&lt;br&gt;&lt;b&gt;Visitor&lt;/b&gt;&lt;/p&gt;&lt;hr style=&quot;border-style:solid;&quot;&gt;&lt;p style=&quot;margin:0px;margin-left:4px;&quot;&gt;&lt;/p&gt;&lt;p style=&quot;margin:0px;margin-left:4px;&quot;&gt;+ visit(item: ConcreteElementA)&lt;br&gt;&lt;span style=&quot;background-color: transparent; color: light-dark(rgb(0, 0, 0), rgb(255, 255, 255));&quot;&gt;+ visit(item: ConcreteElementB)&lt;/span&gt;&lt;/p&gt;" style="verticalAlign=top;align=left;overflow=fill;html=1;whiteSpace=wrap;fontSize=16;strokeWidth=2;" vertex="1" parent="1">
          <mxGeometry x="40" y="80" width="280" height="130" as="geometry" />
        </mxCell>
        <mxCell id="ucuFcOUFUWE4z8_Ut5mJ-3" value="&lt;p style=&quot;margin:0px;margin-top:4px;text-align:center;&quot;&gt;&lt;i&gt;&amp;lt;&amp;lt;Interface&amp;gt;&amp;gt;&lt;/i&gt;&lt;br&gt;&lt;b&gt;Element&lt;/b&gt;&lt;/p&gt;&lt;hr style=&quot;border-style:solid;&quot;&gt;&lt;p style=&quot;margin:0px;margin-left:4px;&quot;&gt;&lt;br&gt;&lt;/p&gt;&lt;p style=&quot;margin:0px;margin-left:4px;&quot;&gt;+ accept(v: Visitor)&lt;br&gt;&lt;br&gt;&lt;/p&gt;" style="verticalAlign=top;align=left;overflow=fill;html=1;whiteSpace=wrap;fontSize=16;strokeWidth=2;" vertex="1" parent="1">
          <mxGeometry x="441" y="80" width="280" height="130" as="geometry" />
        </mxCell>
        <mxCell id="ucuFcOUFUWE4z8_Ut5mJ-9" style="edgeStyle=orthogonalEdgeStyle;rounded=0;orthogonalLoop=1;jettySize=auto;html=1;exitX=0.5;exitY=0;exitDx=0;exitDy=0;entryX=0.5;entryY=1;entryDx=0;entryDy=0;fontSize=16;strokeWidth=2;endArrow=block;endFill=0;dashed=1;endSize=20;" edge="1" parent="1" source="ucuFcOUFUWE4z8_Ut5mJ-4" target="ucuFcOUFUWE4z8_Ut5mJ-1">
          <mxGeometry relative="1" as="geometry" />
        </mxCell>
        <mxCell id="ucuFcOUFUWE4z8_Ut5mJ-4" value="ConcreteVisitor" style="html=1;whiteSpace=wrap;fontSize=16;strokeWidth=2;" vertex="1" parent="1">
          <mxGeometry x="125" y="347.5" width="110" height="50" as="geometry" />
        </mxCell>
        <mxCell id="ucuFcOUFUWE4z8_Ut5mJ-10" style="edgeStyle=orthogonalEdgeStyle;rounded=0;orthogonalLoop=1;jettySize=auto;html=1;exitX=0.5;exitY=0;exitDx=0;exitDy=0;entryX=0.25;entryY=1;entryDx=0;entryDy=0;fontSize=16;strokeWidth=2;endArrow=block;endFill=0;dashed=1;endSize=20;" edge="1" parent="1" source="ucuFcOUFUWE4z8_Ut5mJ-5" target="ucuFcOUFUWE4z8_Ut5mJ-3">
          <mxGeometry relative="1" as="geometry" />
        </mxCell>
        <mxCell id="ucuFcOUFUWE4z8_Ut5mJ-5" value="&lt;p style=&quot;margin:0px;margin-top:4px;text-align:center;&quot;&gt;&lt;b&gt;ElementA&lt;/b&gt;&lt;/p&gt;&lt;hr style=&quot;border-style:solid;&quot;&gt;&lt;p style=&quot;margin:0px;margin-left:4px;&quot;&gt;+ accept(v: Visitor)&lt;br&gt;&lt;/p&gt;&lt;p style=&quot;margin:0px;margin-left:4px;&quot;&gt;&lt;br&gt;&lt;/p&gt;&lt;p style=&quot;margin:0px;margin-left:4px;&quot;&gt;&lt;br&gt;&lt;/p&gt;&lt;p style=&quot;margin:0px;margin-left:4px;&quot;&gt;&lt;br&gt;&lt;/p&gt;" style="verticalAlign=top;align=left;overflow=fill;html=1;whiteSpace=wrap;fontSize=16;strokeWidth=2;" vertex="1" parent="1">
          <mxGeometry x="290" y="320" width="230" height="105" as="geometry" />
        </mxCell>
        <mxCell id="ucuFcOUFUWE4z8_Ut5mJ-8" value="&lt;p style=&quot;margin:0px;margin-top:4px;text-align:center;&quot;&gt;&lt;b&gt;ElementB&lt;/b&gt;&lt;/p&gt;&lt;hr style=&quot;border-style:solid;&quot;&gt;&lt;p style=&quot;margin:0px;margin-left:4px;&quot;&gt;&lt;br&gt;&lt;/p&gt;&lt;p style=&quot;margin:0px;margin-left:4px;&quot;&gt;+ accept(v: Visitor)&lt;br&gt;&lt;/p&gt;&lt;p style=&quot;margin:0px;margin-left:4px;&quot;&gt;&lt;br&gt;&lt;/p&gt;&lt;p style=&quot;margin:0px;margin-left:4px;&quot;&gt;&lt;br&gt;&lt;/p&gt;" style="verticalAlign=top;align=left;overflow=fill;html=1;whiteSpace=wrap;fontSize=16;strokeWidth=2;" vertex="1" parent="1">
          <mxGeometry x="582" y="320" width="230" height="105" as="geometry" />
        </mxCell>
        <mxCell id="ucuFcOUFUWE4z8_Ut5mJ-11" style="edgeStyle=orthogonalEdgeStyle;rounded=0;orthogonalLoop=1;jettySize=auto;html=1;exitX=0.5;exitY=0;exitDx=0;exitDy=0;entryX=0.611;entryY=1.015;entryDx=0;entryDy=0;entryPerimeter=0;fontSize=16;strokeWidth=2;endArrow=block;endFill=0;dashed=1;endSize=20;" edge="1" parent="1" source="ucuFcOUFUWE4z8_Ut5mJ-8" target="ucuFcOUFUWE4z8_Ut5mJ-3">
          <mxGeometry relative="1" as="geometry" />
        </mxCell>
        <mxCell id="ucuFcOUFUWE4z8_Ut5mJ-12" value="func accept (v: Visitor) {&lt;div&gt;visitor.visit(item: self)&lt;/div&gt;&lt;div&gt;}&lt;/div&gt;" style="shape=note2;boundedLbl=1;whiteSpace=wrap;html=1;size=25;verticalAlign=top;align=center;fontSize=16;strokeWidth=2;" vertex="1" parent="1">
          <mxGeometry x="279" y="520" width="240" height="120" as="geometry" />
        </mxCell>
        <mxCell id="ucuFcOUFUWE4z8_Ut5mJ-13" style="edgeStyle=orthogonalEdgeStyle;rounded=0;orthogonalLoop=1;jettySize=auto;html=1;exitX=0.5;exitY=0;exitDx=0;exitDy=0;exitPerimeter=0;entryX=0.474;entryY=0.962;entryDx=0;entryDy=0;entryPerimeter=0;fontSize=16;strokeWidth=2;dashed=1;endArrow=none;startFill=0;" edge="1" parent="1" source="ucuFcOUFUWE4z8_Ut5mJ-12" target="ucuFcOUFUWE4z8_Ut5mJ-5">
          <mxGeometry relative="1" as="geometry" />
        </mxCell>
        <mxCell id="ucuFcOUFUWE4z8_Ut5mJ-14" value="&lt;h1 style=&quot;margin-top: 0px;&quot;&gt;The Visitor Design Pattern&lt;/h1&gt;&lt;p&gt;&lt;font style=&quot;font-size: 16px;&quot;&gt;Element&lt;/font&gt;&lt;/p&gt;&lt;p&gt;&lt;font style=&quot;font-size: 16px;&quot;&gt;&lt;span style=&quot;white-space: pre;&quot;&gt;&#x9;&lt;/span&gt;* Defines the accept(v: Visitor) method&lt;/font&gt;&lt;/p&gt;&lt;p&gt;&lt;font style=&quot;font-size: 16px;&quot;&gt;&lt;br&gt;&lt;/font&gt;&lt;/p&gt;&lt;p&gt;&lt;font style=&quot;font-size: 16px;&quot;&gt;Visitor&lt;/font&gt;&lt;/p&gt;&lt;p&gt;&lt;font style=&quot;font-size: 16px;&quot;&gt;&lt;span style=&quot;white-space: pre;&quot;&gt;&#x9;&lt;/span&gt;* Defines a visit() operation for each concrete Element&lt;br&gt;&lt;/font&gt;&lt;/p&gt;&lt;p&gt;&lt;font style=&quot;font-size: 16px;&quot;&gt;&lt;br&gt;&lt;/font&gt;&lt;/p&gt;&lt;p&gt;&lt;font style=&quot;font-size: 16px;&quot;&gt;How it works&lt;/font&gt;&lt;/p&gt;&lt;p&gt;&lt;font style=&quot;font-size: 16px;&quot;&gt;&lt;span style=&quot;white-space: pre;&quot;&gt;&#x9;&lt;/span&gt;* Concrete elements accept the visitor&lt;br&gt;&lt;/font&gt;&lt;/p&gt;&lt;p&gt;&lt;font style=&quot;font-size: 16px;&quot;&gt;&lt;span style=&quot;white-space: pre;&quot;&gt;&#x9;&lt;/span&gt;* Visitor performs operations on the element&#39;s state&lt;br&gt;&lt;/font&gt;&lt;/p&gt;&lt;p&gt;&lt;font style=&quot;font-size: 16px;&quot;&gt;&lt;br&gt;&lt;/font&gt;&lt;/p&gt;" style="text;html=1;whiteSpace=wrap;overflow=hidden;rounded=0;" vertex="1" parent="1">
          <mxGeometry x="40" y="-400" width="640" height="400" as="geometry" />
        </mxCell>
      </root>
    </mxGraphModel>
  </diagram>
</mxfile>
